<svg width="163" height="44" viewBox="0 0 163 44" fill="none" xmlns="http://www.w3.org/2000/svg">
<path d="M12.6427 7.6393L19.3403 22.3849C19.5386 22.8318 20.0657 23.0336 20.5167 22.8345C20.7205 22.7456 20.8808 22.5841 20.9705 22.3849L27.6681 7.6393C27.9751 6.96366 28.6544 6.52759 29.4016 6.52759H33.2979C34.3494 6.52759 35.1998 7.37012 35.1998 8.41184C35.1998 8.69717 35.1346 8.97712 35.0096 9.23284L21.8644 36.175C21.4052 37.1117 20.2695 37.502 19.324 37.0498C18.9381 36.8641 18.6284 36.5572 18.4409 36.175L5.2957 9.23284C4.83923 8.29609 5.2332 7.16823 6.17875 6.71601C6.43687 6.59219 6.71944 6.52759 7.00745 6.52759H10.9092C11.6564 6.52759 12.3356 6.96366 12.6427 7.6393Z" fill="#005864"/>
<path d="M101.877 13.747C101.111 14.2342 100.105 14.1211 99.4696 13.4778C98.5512 12.5572 97.2986 12.0404 95.9917 12.0458C95.1712 12.0108 94.3696 12.3015 93.7665 12.8533C93.3399 13.2867 93.1008 13.8654 93.0981 14.4684C93.0981 15.2759 93.4703 15.79 94.136 16.2315C94.5816 16.5249 95.0272 16.673 96.5813 17.4832L100.296 19.3136C101.926 20.1211 103.488 20.9287 104.675 22.1804C106.382 23.8735 106.974 25.7847 106.974 27.9166C106.999 30.5276 106.018 33.0525 104.23 34.9717C101.785 37.6205 98.7387 38.428 95.4728 38.428C93.4703 38.428 90.9461 38.1346 88.7208 36.4441C87.3759 35.4051 86.2755 34.0915 85.4957 32.5895C85.0039 31.6689 85.3598 30.5303 86.2864 30.0431C86.3108 30.0296 86.3353 30.0188 86.3624 30.0054L88.9056 28.8102C89.8185 28.3822 90.9108 28.7376 91.3917 29.6178C91.6417 30.0996 91.965 30.5411 92.3563 30.9206C92.8019 31.3621 93.8398 32.0969 95.5461 32.0969C96.6601 32.0969 97.8475 31.7308 98.5159 31.0686C99.1544 30.4172 99.5239 29.5532 99.5538 28.646C99.5592 27.8008 99.2386 26.9852 98.6545 26.3661C98.611 26.3176 98.5675 26.2692 98.5213 26.2261C97.6464 25.3836 96.6194 24.8802 95.4728 24.3822L92.8019 23.1306C91.3917 22.4711 89.6854 21.6608 88.498 20.4845C86.8678 18.9421 86.2728 17.2544 86.2728 15.2651C86.2619 12.8129 87.1884 10.4495 88.8676 8.64873C90.2777 7.17901 92.6525 5.70929 96.5107 5.70929C98.7387 5.70929 100.518 6.15074 102.301 7.32436C103.192 7.89502 103.988 8.59758 104.665 9.40781C105.338 10.2046 105.235 11.3944 104.431 12.0619C104.374 12.1104 104.314 12.1534 104.252 12.1938L101.877 13.747Z" fill="#005864"/>
<path d="M157.895 8.62451V36.6757C157.895 37.7174 157.044 38.5599 155.993 38.5599H152.605C151.553 38.5599 150.703 37.7174 150.703 36.6757V12.4092C150.703 11.8358 150.966 11.2921 151.42 10.9341L155.688 7.56933C156.275 7.10634 157.128 7.20055 157.599 7.78198C157.791 8.02155 157.895 8.31765 157.895 8.62451Z" fill="#005864"/>
<path d="M133.667 13.4778C132.9 13.965 131.895 13.852 131.259 13.2086C130.341 12.288 129.088 11.7712 127.782 11.7766C126.961 11.7416 126.159 12.0323 125.556 12.5841C125.13 13.0175 124.891 13.5962 124.888 14.1992C124.888 15.0067 125.26 15.5209 125.926 15.9623C126.371 16.2557 126.817 16.4038 128.371 17.214L132.085 19.0444C133.716 19.852 135.278 20.6595 136.465 21.9112C138.172 23.6043 138.764 25.5155 138.764 27.6474C138.788 30.2584 137.808 32.7833 136.02 34.7026C133.574 37.3513 130.528 38.1588 127.263 38.1588C125.26 38.1588 122.736 37.8654 120.511 36.175C119.166 35.136 118.065 33.8224 117.285 32.3203C116.794 31.3998 117.15 30.2611 118.076 29.7739C118.101 29.7605 118.125 29.7497 118.152 29.7362L120.695 28.5411C121.608 28.1131 122.701 28.4684 123.182 29.3486C123.431 29.8304 123.755 30.2719 124.146 30.6514C124.592 31.0929 125.63 31.8277 127.336 31.8277C128.45 31.8277 129.637 31.4617 130.306 30.7995C130.944 30.1481 131.314 29.284 131.344 28.3769C131.349 27.5316 131.028 26.716 130.444 26.0969C130.401 26.0485 130.357 26 130.311 25.957C129.436 25.1144 128.409 24.6111 127.263 24.1131L124.592 22.8614C123.182 22.2019 121.475 21.3917 120.288 20.2154C118.658 18.673 118.063 16.9852 118.063 14.996C118.052 12.5438 118.978 10.1804 120.657 8.37956C122.068 6.90984 124.442 5.44012 128.3 5.44012C130.528 5.44012 132.308 5.88158 134.091 7.0552C134.982 7.62586 135.778 8.32842 136.454 9.13865C137.128 9.93542 137.025 11.1252 136.221 11.7928C136.164 11.8412 136.104 11.8843 136.041 11.9246L133.667 13.4778Z" fill="#005864"/>
<path d="M72.8993 29.9597C73.3449 30.2046 73.5052 30.7591 73.258 31.2006C73.2498 31.214 73.2417 31.2275 73.2335 31.241C72.0108 33.1764 70.3833 34.8291 68.4623 36.0862C65.9382 37.7013 62.5989 38.4388 59.2596 38.4388C55.1052 38.4388 51.6926 37.4105 48.7228 34.4684C45.753 31.5263 44.1228 27.2652 44.1228 22.6245C44.1228 17.8466 45.8291 13.2167 49.095 9.90852C51.6926 7.33517 55.1052 5.71741 59.5585 5.71741C64.528 5.71741 67.7097 7.84931 69.5763 9.75509C72.3124 12.4092 73.8748 16.027 73.9237 19.8197C73.9237 19.8197 74.1954 23.5882 70.9349 23.5882L52.5593 23.7201C52.0648 23.7201 51.6654 24.1185 51.6654 24.6057C51.6654 24.6542 51.6708 24.7053 51.679 24.7537C52.0132 26.6703 52.9071 28.6622 54.2249 29.9677C55.9312 31.6582 58.0098 31.9543 59.7894 31.9543C61.7946 31.9543 63.2782 31.5128 64.7617 30.4092C65.7262 29.6609 66.5577 28.7591 67.2206 27.7389C67.4869 27.3459 68.014 27.2221 68.4297 27.4563L72.8993 29.9597ZM65.3431 17.8466C65.854 17.8466 66.2697 17.4375 66.2697 16.9287C66.2697 16.8291 66.2534 16.7268 66.2208 16.6326C65.8431 15.5021 65.1883 14.4792 64.3188 13.6555C63.3542 12.7753 61.7974 11.8924 59.4281 11.8924C56.9039 11.8924 55.2737 12.9206 54.3091 13.8762C53.5103 14.6434 52.8881 15.5721 52.4832 16.6003C52.2985 17.0687 52.5294 17.599 53.0049 17.7847C53.1136 17.8278 53.2304 17.8493 53.3473 17.8466H65.3431Z" fill="#005864"/>
</svg>
